<svg xmlns="http://www.w3.org/2000/svg" viewBox="0 0 800 600" width="800" height="600" preserveAspectRatio="xMidYMid slice" role="img" aria-label="Placeholder event image 1">
  <defs>
    <linearGradient id="bg1" x1="0" y1="0" x2="0" y2="1">
      <stop offset="0" stop-color="#07162B"/><stop offset="0.6" stop-color="#12315A"/><stop offset="1" stop-color="#2F6396"/>
    </linearGradient>
  </defs>
  <rect width="800" height="600" fill="url(#bg1)"/>
  <circle cx="620" cy="200" r="60" fill="#FFE9A8" opacity="0.8"/>
  <g transform="translate(400 300)">
      <rect x="-260" y="-160" width="520" height="12" fill="#C9A24A"/>
      <rect x="-250" y="-160" width="8" height="200" fill="#F5F7FA"/>
      <rect x="242" y="-160" width="8" height="200" fill="#F5F7FA"/>
      <path d="M-200 -140 L-120 60 L-40 -140 Z" fill="#FFE9A8" opacity="0.35"/>
      <path d="M0 -140 L80 60 L160 -140 Z" fill="#FFE9A8" opacity="0.35"/>
      <path d="M-100 -140 L-20 60 L60 -140 Z" fill="#FFE9A8" opacity="0.25"/>
      <rect x="-260" y="40" width="520" height="60" fill="#07162B"/>
      <rect x="-260" y="40" width="520" height="6" fill="#C9A24A"/>
      <g fill="#07162B" opacity="0.85">
        <circle cx="-200" cy="130" r="14"/><circle cx="-150" cy="126" r="14"/><circle cx="-100" cy="132" r="14"/>
        <circle cx="-50" cy="127" r="14"/><circle cx="0" cy="131" r="14"/><circle cx="50" cy="126" r="14"/>
        <circle cx="100" cy="132" r="14"/><circle cx="150" cy="127" r="14"/><circle cx="200" cy="130" r="14"/>
      </g></g>
  <g fill="none" stroke="#FFFFFF" stroke-linecap="round" opacity="0.3">
    <path d="M0 440 q30 -12 60 0 t60 0 t60 0 t60 0 t60 0 t60 0 t60 0 t60 0 t60 0 t60 0 t60 0 t60 0 t60 0 t60 0" stroke-width="3"/>
    <path d="M-30 500 q30 -14 60 0 t60 0 t60 0 t60 0 t60 0 t60 0 t60 0 t60 0 t60 0 t60 0 t60 0 t60 0 t60 0 t60 0" stroke-width="3"/>
    <path d="M0 560 q30 -16 60 0 t60 0 t60 0 t60 0 t60 0 t60 0 t60 0 t60 0 t60 0 t60 0 t60 0 t60 0 t60 0 t60 0" stroke-width="3"/>
  </g>
</svg>
